# This file uses centimeters as units for non-parametric coordinates.

mtllib Barra L.mtl
g default
v -10.257638 0.000000 0.988491
v -8.378789 0.000000 0.988491
v -10.257638 1.000000 0.988491
v -8.378789 1.000000 0.988491
v -10.257638 1.000000 -0.988491
v -8.378789 1.000000 -0.988491
v -10.257638 0.000000 -0.988491
v -8.378789 0.000000 -0.988491
v -10.157638 1.133553 0.888491
v -8.478789 1.133553 0.888491
v -8.478789 1.133553 -0.888491
v -10.157638 1.133553 -0.888491
v -10.157638 6.067079 0.888491
v -8.478789 6.067079 0.888491
v -8.478789 6.067079 -0.888491
v -10.157638 6.067079 -0.888491
v -10.157638 6.237175 0.888491
v -8.478789 6.237175 0.888491
v -8.478789 6.237175 -0.888491
v -10.157638 6.237175 -0.888491
v -10.157638 7.138385 0.888491
v -8.478789 7.138385 0.888491
v -8.478789 7.138385 -0.888491
v -10.157638 7.138385 -0.888491
v -10.157638 7.813969 0.888491
v -8.478789 7.813969 0.888491
v -8.478789 7.813969 -0.888491
v -10.157638 7.813969 -0.888491
v -10.157638 8.446584 0.888491
v -8.478789 8.446584 0.888491
v -8.478789 8.446584 -0.888491
v -10.157638 8.446584 -0.888491
v -10.611770 7.175745 1.369169
v -8.024657 7.175745 1.369169
v -8.024657 7.694214 1.369169
v -10.611770 7.694214 1.369169
v -8.024657 7.175745 -1.369169
v -8.024657 7.694214 -1.369169
v -10.611770 7.175745 -1.369169
v -10.611770 7.694214 -1.369169
v -8.024657 7.837986 1.369169
v -10.611770 7.837986 1.369169
v -8.024657 7.837986 -1.369169
v -10.611770 7.837986 -1.369169
v -10.741373 7.683671 1.506348
v -7.895053 7.683671 1.506348
v -7.895053 7.841847 1.506348
v -10.741373 7.841847 1.506348
v -7.895053 7.683671 -1.506348
v -7.895053 7.841847 -1.506348
v -10.741373 7.683671 -1.506348
v -10.741373 7.841847 -1.506348
v -10.322090 6.026521 1.062557
v -8.314336 6.026521 1.062557
v -8.314336 6.229942 1.062557
v -10.322090 6.229942 1.062557
v -8.314336 6.026521 -1.062557
v -8.314336 6.229942 -1.062557
v -10.322090 6.026521 -1.062557
v -10.322090 6.229942 -1.062557
vt 0.298302 0.026936
vt 0.433902 0.027174
vt 0.433663 0.162774
vt 0.298064 0.162536
vt 0.426770 0.182257
vt 0.304888 0.182043
vt 0.425596 0.851242
vt 0.303714 0.851028
vt 0.159955 0.026936
vt 0.295555 0.027174
vt 0.295317 0.162774
vt 0.159717 0.162536
vt 0.288424 0.182257
vt 0.166542 0.182043
vt 0.287249 0.851242
vt 0.165367 0.851028
vt 0.728476 0.389146
vt 0.728476 0.243386
vt 0.756060 0.243386
vt 0.756060 0.389146
vt 0.909095 0.584759
vt 0.909095 0.438999
vt 0.936679 0.438999
vt 0.936679 0.584759
vt 0.713104 0.751521
vt 0.834986 0.751521
vt 0.834986 0.873725
vt 0.713104 0.873725
vt 0.713104 0.629316
vt 0.834986 0.629316
vt 0.834986 0.751521
vt 0.713104 0.751521
vt 0.836079 0.750765
vt 0.836079 0.562944
vt 0.906383 0.562944
vt 0.906383 0.750765
vt 0.782277 0.214757
vt 0.782277 0.026936
vt 0.852582 0.026936
vt 0.852582 0.214757
vt 0.928310 0.233575
vt 0.928310 0.026936
vt 0.949759 0.026936
vt 0.949759 0.233575
vt 0.897566 0.420292
vt 0.897566 0.213653
vt 0.919015 0.213653
vt 0.919015 0.420292
vt 0.428725 0.972899
vt 0.428725 0.851017
vt 0.514507 0.851017
vt 0.514507 0.972899
vt 0.025213 0.973064
vt 0.025213 0.851182
vt 0.110996 0.851182
vt 0.110996 0.973064
vt 0.774591 0.233856
vt 0.895757 0.233856
vt 0.895757 0.355738
vt 0.774591 0.355738
vt 0.600163 0.595875
vt 0.721350 0.596034
vt 0.754429 0.629316
vt 0.567071 0.629145
vt 0.721510 0.474129
vt 0.754601 0.440859
vt 0.600322 0.473969
vt 0.567244 0.440687
vt 0.738202 0.069473
vt 0.617046 0.069445
vt 0.584140 0.036362
vt 0.771093 0.036374
vt 0.617019 0.191319
vt 0.584128 0.224418
vt 0.574770 0.026936
vt 0.780464 0.026949
vt 0.738175 0.191346
vt 0.771081 0.224430
vt 0.574757 0.233843
vt 0.780451 0.233856
vt 0.576510 0.431194
vt 0.763265 0.431247
vt 0.772703 0.440740
vt 0.567071 0.440686
vt 0.763318 0.243387
vt 0.772757 0.233895
vt 0.576563 0.243334
vt 0.567125 0.233841
vt 0.591435 0.378416
vt 0.712898 0.378987
vt 0.725711 0.391884
vt 0.578600 0.391293
vt 0.713471 0.256804
vt 0.726306 0.243927
vt 0.592008 0.256233
vt 0.579195 0.243336
vt 0.700167 0.641249
vt 0.578991 0.641230
vt 0.567091 0.629259
vt 0.712069 0.629279
vt 0.578972 0.763123
vt 0.567071 0.775093
vt 0.700148 0.763142
vt 0.712049 0.775113
vt 0.436627 0.026936
vt 0.572227 0.027152
vt 0.572010 0.162752
vt 0.436410 0.162536
vt 0.564762 0.182106
vt 0.443597 0.181913
vt 0.563695 0.851092
vt 0.442529 0.850898
vt 0.025714 0.715256
vt 0.161313 0.715757
vt 0.160812 0.851356
vt 0.025213 0.850855
vt 0.033003 0.695918
vt 0.154168 0.696365
vt 0.035474 0.026936
vt 0.156638 0.027384
vt 0.939839 0.583902
vt 0.939839 0.438999
vt 0.967423 0.438999
vt 0.967423 0.583902
vt 0.936679 0.584759
vt 0.936679 0.729663
vt 0.909095 0.729663
vt 0.909095 0.584759
vt 0.567071 0.775110
vt 0.688237 0.775110
vt 0.688237 0.897314
vt 0.567071 0.897314
vt 0.876542 0.562944
vt 0.755377 0.562944
vt 0.755377 0.440740
vt 0.876542 0.440740
vt 0.836079 0.937481
vt 0.836079 0.750765
vt 0.906383 0.750765
vt 0.906383 0.937481
vt 0.925598 0.026936
vt 0.925598 0.213653
vt 0.855294 0.213653
vt 0.855294 0.026936
vt 0.920624 0.438999
vt 0.920624 0.233575
vt 0.942073 0.233575
vt 0.942073 0.438999
vt 0.965131 0.233575
vt 0.965131 0.438999
vt 0.943682 0.438999
vt 0.943682 0.233575
vt 0.620873 0.190632
vt 0.620873 0.069467
vt 0.706656 0.069467
vt 0.706656 0.190632
vt 0.679755 0.256658
vt 0.679755 0.377823
vt 0.593972 0.377823
vt 0.593972 0.256658
vn -0.724869 0.000000 0.688887
vn 0.724869 0.000000 0.688887
vn 0.722166 0.094606 0.685220
vn -0.722166 0.094606 0.685220
vn -0.334536 0.887801 0.316062
vn 0.334536 0.887801 0.316062
vn 0.334536 0.887801 -0.316062
vn -0.334536 0.887801 -0.316062
vn -0.722166 0.094606 -0.685220
vn 0.722166 0.094606 -0.685220
vn 0.724869 0.000000 -0.688887
vn -0.724869 0.000000 -0.688887
vn 0.726282 0.035740 0.686468
vn -0.726282 0.035740 0.686468
vn 0.726282 0.035740 -0.686468
vn -0.726282 0.035740 -0.686468
vn 0.724612 -0.078978 0.684617
vn -0.724612 -0.078978 0.684617
vn 0.724612 -0.078978 -0.684617
vn -0.724612 -0.078978 -0.684617
vn -0.614026 -0.535633 0.579715
vn 0.614026 -0.535633 0.579715
vn 0.641702 0.469654 0.606336
vn -0.641702 0.469654 0.606336
vn 0.614026 -0.535633 -0.579715
vn 0.641702 0.469654 -0.606336
vn -0.614026 -0.535633 -0.579715
vn -0.641702 0.469654 -0.606336
vn -0.667566 0.395728 0.630679
vn 0.667566 0.395728 0.630679
vn 0.445186 -0.790549 0.420525
vn -0.445186 -0.790549 0.420525
vn 0.667566 0.395728 -0.630679
vn 0.445186 -0.790549 -0.420525
vn -0.667566 0.395728 -0.630679
vn -0.445186 -0.790549 -0.420525
vn -0.646562 -0.456787 0.610986
vn 0.646562 -0.456787 0.610986
vn 0.626061 -0.508068 0.591535
vn -0.626061 -0.508068 0.591535
vn 0.646562 -0.456787 -0.610986
vn 0.626061 -0.508068 -0.591535
vn -0.646562 -0.456787 -0.610986
vn -0.626061 -0.508068 -0.591535
vn -0.625691 -0.509152 0.590994
vn 0.625691 -0.509152 0.590994
vn 0.629972 0.498954 0.595130
vn -0.629972 0.498954 0.595130
vn 0.625691 -0.509152 -0.590994
vn 0.629972 0.498954 -0.595130
vn -0.625691 -0.509152 -0.590994
vn -0.629972 0.498954 -0.595130
vn -0.307510 0.906090 0.290584
vn 0.307510 0.906090 0.290584
vn 0.307510 0.906090 -0.290584
vn -0.307510 0.906090 -0.290584
vn 0.020383 0.999605 -0.019328
vn -0.020383 0.999605 -0.019328
vn -0.020383 0.999605 0.019328
vn 0.020383 0.999605 0.019328
s 1
g pCube22 Reja
usemtl initialShadingGroup
f 1/105/1 2/106/2 4/107/3 3/108/4
f 29/57/5 30/58/6 31/59/7 32/60/8
f 5/113/9 6/114/10 8/115/11 7/116/12
f 2/1/2 8/2/11 6/3/10 4/4/3
f 7/9/12 1/10/1 3/11/4 5/12/9
f 3/108/4 4/107/3 10/109/13 9/110/14
f 4/4/3 6/3/10 11/5/15 10/6/13
f 6/114/10 5/113/9 12/117/16 11/118/15
f 5/12/9 3/11/4 9/13/14 12/14/16
f 9/110/14 10/109/13 14/111/17 13/112/18
f 10/6/13 11/5/15 15/7/19 14/8/17
f 11/118/15 12/117/16 16/119/20 15/120/19
f 12/14/16 9/13/14 13/15/18 16/16/20
f 53/121/21 54/122/22 55/123/23 56/124/24
f 54/17/22 57/18/25 58/19/26 55/20/23
f 57/125/25 59/126/27 60/127/28 58/128/26
f 59/21/27 53/22/21 56/23/24 60/24/28
f 17/129/29 18/130/30 22/131/31 21/132/32
f 18/25/30 19/26/33 23/27/34 22/28/31
f 19/133/33 20/134/35 24/135/36 23/136/34
f 20/29/35 17/30/29 21/31/32 24/32/36
f 33/137/37 34/138/38 35/139/39 36/140/40
f 34/33/38 37/34/41 38/35/42 35/36/39
f 37/141/41 39/142/43 40/143/44 38/144/42
f 39/37/43 33/38/37 36/39/40 40/40/44
f 45/145/45 46/146/46 47/147/47 48/148/48
f 46/41/46 49/42/49 50/43/50 47/44/47
f 49/149/49 51/150/51 52/151/52 50/152/50
f 51/45/51 45/46/45 48/47/48 52/48/52
f 25/153/53 26/154/54 30/155/6 29/156/5
f 26/49/54 27/50/55 31/51/7 30/52/6
f 27/157/55 28/158/56 32/159/8 31/160/7
f 28/53/56 25/54/53 29/55/5 32/56/8
f 21/61/32 22/62/31 34/63/38 33/64/37
f 22/62/31 23/65/34 37/66/41 34/63/38
f 23/65/34 24/67/36 39/68/43 37/66/41
f 24/67/36 21/61/32 33/64/37 39/68/43
f 26/69/54 25/70/53 42/71/57 41/72/58
f 27/77/55 26/69/54 41/72/58 43/78/59
f 28/73/56 27/77/55 43/78/59 44/74/60
f 25/70/53 28/73/56 44/74/60 42/71/57
f 36/81/40 35/82/39 46/83/46 45/84/45
f 41/72/58 42/71/57 48/75/48 47/76/47
f 35/82/39 38/85/42 49/86/49 46/83/46
f 43/78/59 41/72/58 47/76/47 50/80/50
f 38/85/42 40/87/44 51/88/51 49/86/49
f 44/74/60 43/78/59 50/80/50 52/79/52
f 40/87/44 36/81/40 45/84/45 51/88/51
f 42/71/57 44/74/60 52/79/52 48/75/48
f 13/89/18 14/90/17 54/91/22 53/92/21
f 18/97/30 17/98/29 56/99/24 55/100/23
f 14/90/17 15/93/19 57/94/25 54/91/22
f 19/103/33 18/97/30 55/100/23 58/104/26
f 15/93/19 16/95/20 59/96/27 57/94/25
f 20/101/35 19/103/33 58/104/26 60/102/28
f 16/95/20 13/89/18 53/92/21 59/96/27
f 17/98/29 20/101/35 60/102/28 56/99/24
