# This file uses centimeters as units for non-parametric coordinates.

mtllib Tumba rota L 5.mtl
g default
v 8.944671 0.000000 0.175329
v 10.547951 0.000000 0.175329
v 8.944671 1.000000 0.175329
v 10.547951 1.000000 0.175329
v 8.944671 1.000000 -0.175329
v 10.547951 1.000000 -0.175329
v 8.944671 0.000000 -0.175329
v 10.547951 0.000000 -0.175329
v 9.265327 0.000000 0.175329
v 9.265327 0.000000 -0.175329
v 9.128829 1.172410 -0.175329
v 9.128829 1.172410 0.175329
v 9.742811 2.353733 -0.175329
v 9.742811 2.353733 0.175329
v 10.547951 2.353733 0.175329
v 10.547951 2.353733 -0.175329
v 10.419688 0.000000 0.175329
v 10.419688 1.000000 0.175329
v 10.360263 2.464390 0.175329
v 10.360263 2.464390 -0.175329
v 10.419688 1.000000 -0.175329
v 10.419688 0.000000 -0.175329
v 9.964540 3.041075 -0.175329
v 9.964540 3.041075 0.175329
vt 0.023533 0.011978
vt 0.262745 0.014569
vt 0.260154 0.253781
vt 0.020942 0.251190
vt 0.256647 0.577610
vt 0.017435 0.575019
vt 0.256229 0.616144
vt 0.017017 0.613553
vt 0.254604 0.766199
vt 0.015392 0.763608
vt 0.264125 0.011978
vt 0.503351 0.012256
vt 0.503073 0.251482
vt 0.263847 0.251204
vt 0.503015 0.301042
vt 0.263789 0.300764
vt 0.502670 0.598123
vt 0.263444 0.597845
vt 0.502475 0.765849
vt 0.263249 0.765571
vt 0.772860 0.292449
vt 0.793227 0.011978
vt 0.965470 0.011978
vt 0.965470 0.251204
vt 0.745382 0.011978
vt 0.745382 0.251204
vt 0.984608 0.011978
vt 0.984608 0.251204
vt 0.956603 0.601524
vt 0.864473 0.575052
vt 0.984608 0.575052
vt 0.897557 0.739483
vt 0.552161 0.739483
vt 0.531794 0.459011
vt 0.724404 0.500256
vt 0.724404 0.739483
vt 0.504315 0.500256
vt 0.504315 0.739483
vt 0.715537 0.149936
vt 0.623406 0.176408
vt 0.743542 0.500256
vt 0.743542 0.739483
vt 0.743542 0.176408
vt 0.656491 0.011978
vn -0.193612 0.114150 0.974415
vn 0.000000 0.000000 1.000000
vn 0.000000 0.000000 1.000000
vn 0.000000 0.000000 1.000000
vn 0.000000 0.000000 -1.000000
vn -0.193612 0.114150 -0.974415
vn -0.000000 0.000000 -1.000000
vn 0.000000 0.000000 -1.000000
vn 0.939146 0.000000 0.343517
vn 0.939146 0.000000 -0.343517
vn 0.920957 0.000000 -0.389665
vn 0.920957 0.000000 0.389665
vn -0.781388 0.000000 -0.624046
vn -0.781388 0.000000 0.624046
vn -0.666476 0.104688 0.738140
vn -0.666476 0.104688 -0.738140
vn -0.324145 0.144965 0.934834
vn -0.324145 0.144965 -0.934834
vn 0.172640 0.146535 0.974024
vn 0.838261 0.107438 -0.534580
vn 0.838261 0.107438 0.534580
vn 0.172640 0.146535 -0.974024
vn -0.166559 0.929375 0.329426
vn -0.166559 0.929375 -0.329426
s 1
g pCube37
usemtl initialShadingGroup
f 12/21/1 9/22/2 17/23/3 18/24/4
f 10/33/5 11/34/6 21/35/7 22/36/8
f 2/1/9 8/2/10 6/3/11 4/4/12
f 7/11/13 1/12/14 3/13/15 5/14/16
f 5/37/16 11/34/6 10/33/5 7/38/13
f 3/13/15 12/15/1 11/16/6 5/14/16
f 1/25/14 9/22/2 12/21/1 3/26/15
f 11/16/6 12/15/1 14/17/17 13/18/18
f 12/21/1 18/24/4 19/29/19 14/30/17
f 4/4/12 6/3/11 16/5/20 15/6/21
f 20/39/22 21/35/7 11/34/6 13/40/18
f 18/24/4 17/23/3 2/27/9 4/28/12
f 19/29/19 18/24/4 4/28/12 15/31/21
f 20/7/22 19/8/19 15/6/21 16/5/20
f 6/41/11 21/35/7 20/39/22 16/43/20
f 22/36/8 21/35/7 6/41/11 8/42/10
f 13/18/18 14/17/17 24/19/23 23/20/24
f 14/30/17 19/29/19 24/32/23
f 19/8/19 20/7/22 23/9/24 24/10/23
f 20/39/22 13/40/18 23/44/24
