# This file uses centimeters as units for non-parametric coordinates.

mtllib Tumba cubica L 1.mtl
g default
v -0.787247 -0.500000 0.800225
v 0.787247 -0.500000 0.800225
v -0.787247 0.500000 0.800225
v 0.787247 0.500000 0.800225
v -0.787247 0.500000 -0.800225
v 0.787247 0.500000 -0.800225
v -0.787247 -0.500000 -0.800225
v 0.787247 -0.500000 -0.800225
v -0.587247 0.500000 0.600225
v 0.587247 0.500000 0.600225
v 0.587247 0.500000 -0.600225
v -0.587247 0.500000 -0.600225
v -0.587247 2.743441 0.600225
v 0.587247 2.743441 0.600225
v 0.587247 2.743441 -0.600225
v -0.587247 2.743441 -0.600225
vt 0.239322 0.528352
vt 0.472250 0.528352
vt 0.472250 0.761281
vt 0.239322 0.761281
vt 0.001896 0.528352
vt 0.234824 0.528352
vt 0.234824 0.761281
vt 0.001896 0.761281
vt 0.181995 0.001992
vt 0.356708 0.001992
vt 0.356708 0.524554
vt 0.181995 0.524554
vt 0.543677 0.001992
vt 0.718390 0.001992
vt 0.718390 0.524554
vt 0.543677 0.524554
vt 0.480615 0.765079
vt 0.654368 0.765079
vt 0.654368 0.939792
vt 0.480615 0.939792
vt 0.241348 0.765079
vt 0.474277 0.765079
vt 0.444689 0.794187
vt 0.270936 0.794187
vt 0.474277 0.998008
vt 0.444689 0.968900
vt 0.241348 0.998008
vt 0.270936 0.968900
vt 0.716856 0.528352
vt 0.949785 0.528352
vt 0.949785 0.761281
vt 0.716856 0.761281
vt 0.478089 0.761281
vt 0.478089 0.528352
vt 0.711017 0.528352
vt 0.711017 0.761281
vt 0.001896 0.001992
vt 0.175649 0.001992
vt 0.175649 0.524554
vt 0.001896 0.524554
vt 0.537517 0.524554
vt 0.363763 0.524554
vt 0.363763 0.001992
vt 0.537517 0.001992
vn -0.712864 0.000000 0.701303
vn 0.712864 0.000000 0.701303
vn 0.707479 0.122678 0.696005
vn -0.707479 0.122678 0.696005
vn -0.669454 0.350475 0.654980
vn 0.669454 0.350475 0.654980
vn 0.669454 0.350475 -0.654980
vn -0.669454 0.350475 -0.654980
vn -0.707479 0.122678 -0.696005
vn 0.707479 0.122678 -0.696005
vn 0.712864 0.000000 -0.701303
vn -0.712864 0.000000 -0.701303
vn 0.697959 0.215741 0.682868
vn -0.697959 0.215741 0.682868
vn 0.697959 0.215741 -0.682868
vn -0.697959 0.215741 -0.682868
s 1
g cubica
usemtl initialShadingGroup
f 1/29/1 2/30/2 4/31/3 3/32/4
f 13/17/5 14/18/6 15/19/7 16/20/8
f 5/33/9 6/34/10 8/35/11 7/36/12
f 2/1/2 8/2/11 6/3/10 4/4/3
f 7/5/12 1/6/1 3/7/4 5/8/9
f 3/21/4 4/22/3 10/23/13 9/24/14
f 4/22/3 6/25/10 11/26/15 10/23/13
f 6/25/10 5/27/9 12/28/16 11/26/15
f 5/27/9 3/21/4 9/24/14 12/28/16
f 9/37/14 10/38/13 14/39/6 13/40/5
f 10/9/13 11/10/15 15/11/7 14/12/6
f 11/41/15 12/42/16 16/43/8 15/44/7
f 12/13/16 9/14/14 13/15/5 16/16/8
